<?xml version="1.0" encoding="utf-8"?>
<!-- Generator: Adobe Illustrator 18.0.0, SVG Export Plug-In . SVG Version: 6.00 Build 0)  -->
<!DOCTYPE svg PUBLIC "-//W3C//DTD SVG 1.1//EN" "http://www.w3.org/Graphics/SVG/1.1/DTD/svg11.dtd">
<svg version="1.1" xmlns="http://www.w3.org/2000/svg" xmlns:xlink="http://www.w3.org/1999/xlink" x="0px" y="0px"
	 viewBox="156.7 0 711.8 768" enable-background="new 156.7 0 711.8 768" xml:space="preserve">
<g id="Layer_2">
	<rect x="156.7" fill="#E91E63" width="711.8" height="768"/>
</g>
<g id="Layer_1">
	<g>
		<path fill="#FFFFFF" d="M499.2,332.8v30.7l-33.3-15.4c-5.1-2.6-12.8,0-17.9,5.1c-2.6,5.1,0,12.8,5.1,17.9l28.2,15.4l-28.2,15.4
			c-5.1,2.6-7.7,10.2-5.1,17.9c2.6,5.1,7.7,7.7,10.2,7.7s5.1,0,5.1-2.6l33.3-15.4v25.6c0,7.7,5.1,12.8,12.8,12.8
			c7.7,0,12.8-5.1,12.8-12.8v-30.7l33.3,15.4c2.6,0,2.6,2.6,5.1,2.6c5.1,0,10.2-2.6,10.2-7.7c2.6-5.1,0-12.8-5.1-17.9L540.2,384
			l28.2-15.4c5.1-2.6,7.7-10.2,5.1-17.9c-2.6-5.1-10.2-7.7-17.9-5.1L522.2,361v-28.2c0-7.7-5.1-12.8-12.8-12.8
			S499.2,325.1,499.2,332.8z"/>
		<path fill="#FFFFFF" d="M832,473.6L755.2,512l-38.4-25.6l61.4-30.7c5.1-2.6,7.7-10.2,5.1-17.9c-2.6-5.1-10.2-7.7-17.9-5.1
			L688.6,471l-35.8-20.5c0,0,0,0-2.6,0V317.4c0,0,0,0,2.6,0l35.8-20.5l76.8,38.4c2.6,0,2.6,2.6,5.1,2.6c5.1,0,10.2-2.6,10.2-7.7
			c2.6-5.1,0-12.8-5.1-17.9l-58.9-30.7l41-23l76.8,38.4c2.6,0,2.6,2.6,5.1,2.6c5.1,0,10.2-2.6,10.2-7.7c2.6-5.1,0-12.8-5.1-17.9
			l-61.4-30.7l46.1-25.6c5.1-2.6,7.7-10.2,5.1-17.9c-2.6-5.1-10.2-7.7-17.9-5.1l-46.1,25.6l5.1-69.1c0-7.7-5.1-12.8-12.8-12.8
			c-5.1,0-12.8,5.1-12.8,12.8l-7.7,84.5l-41,23l5.1-69.1c0-7.7-5.1-12.8-12.8-12.8s-12.8,5.1-12.8,12.8l-5.1,84.5l-33.3,20.5
			l-117.8-71.7v-35.8l71.7-48.6c5.1-5.1,7.7-12.8,2.6-17.9s-12.8-7.7-17.9-2.6l-56.3,38.4v-46.1l71.7-48.6
			c5.1-5.1,7.7-12.8,2.6-17.9s-12.8-7.7-17.9-2.6l-56.3,38.4V25.6c0-7.7-5.1-12.8-12.8-12.8c-7.7,0-12.8,5.1-12.8,12.8v53.8
			L442.9,41c-5.1-5.1-12.8-2.6-17.9,2.6s-2.6,12.8,2.6,17.9l71.7,48.6v46.1l-56.3-38.4c-5.1-5.1-12.8-2.6-17.9,2.6
			s-2.6,12.8,2.6,17.9l71.7,48.6v35.8l-117.8,71.7l-33.3-20.5l-7.7-84.5c0-7.7-7.7-12.8-12.8-12.8c-7.7,0-12.8,7.7-12.8,12.8
			l5.1,69.1l-38.4-23l-7.7-84.5c0-7.7-7.7-12.8-12.8-12.8c-7.7,0-12.8,7.7-12.8,12.8l5.1,69.1l-46.1-25.6
			c-5.1-5.1-12.8-2.6-17.9,2.6c-2.6,7.7,0,15.4,5.1,17.9l46.1,25.6l-61.4,30.7c-5.1,2.6-7.7,10.2-5.1,17.9c2.6,5.1,7.7,7.7,10.2,7.7
			s5.1,0,5.1-2.6l76.8-38.4l41,25.6l-61.4,30.7c-5.1,2.6-7.7,10.2-5.1,17.9c2.6,5.1,7.7,7.7,10.2,7.7s5.1,0,5.1-2.6l76.8-38.4
			l35.8,20.5c0,0,0,0,2.6,0v133.1c0,0,0,0-2.6,0L332.8,471L256,432.6c-5.1-2.6-12.8,0-17.9,5.1c-2.6,5.1,0,12.8,5.1,17.9l64,30.7
			l-41,23L189.4,471c-5.1-2.6-12.8,0-17.9,5.1c-2.6,5.1,0,12.8,5.1,17.9l61.4,30.7L192,550.4c-5.1,2.6-7.7,10.2-5.1,17.9
			c2.6,5.1,7.7,7.7,10.2,7.7s5.1,0,7.7-2.6l46.1-25.6l-5.1,69.1c0,7.7,5.1,12.8,12.8,12.8l0,0c7.7,0,12.8-5.1,12.8-12.8l10.2-84.5
			l41-23l-5.1,69.1c0,7.7,5.1,12.8,12.8,12.8l0,0c7.7,0,12.8-5.1,12.8-12.8l5.1-84.5l33.3-20.5l117.8,71.7v35.8l-71.7,48.6
			c-5.1,5.1-7.7,12.8-2.6,17.9c5.1,5.1,12.8,7.7,17.9,2.6l56.3-38.4v46.1l-71.7,48.6c-5.1,5.1-7.7,12.8-2.6,17.9s12.8,7.7,17.9,2.6
			l56.3-38.4v53.8c0,7.7,5.1,12.8,12.8,12.8s12.8-5.1,12.8-12.8v-53.8l56.3,38.4c2.6,2.6,5.1,2.6,7.7,2.6c5.1,0,7.7-2.6,10.2-5.1
			c5.1-5.1,2.6-12.8-2.6-17.9l-71.7-48.6v-46.1l56.3,38.4c2.6,2.6,5.1,2.6,7.7,2.6c5.1,0,7.7-2.6,10.2-5.1
			c5.1-5.1,2.6-12.8-2.6-17.9l-71.7-48.6v-35.8l117.8-71.7l33.3,20.5l5.1,84.5c0,7.7,5.1,12.8,12.8,12.8l0,0
			c7.7,0,12.8-7.7,12.8-12.8l-5.1-69.1l41,23l5.1,84.5c0,7.7,5.1,12.8,12.8,12.8l0,0c7.7,0,12.8-7.7,12.8-12.8l-5.1-69.1l46.1,25.6
			c2.6,0,5.1,2.6,7.7,2.6c5.1,0,7.7-2.6,10.2-7.7c2.6-5.1,2.6-12.8-5.1-17.9l-46.1-25.6l61.4-30.7c5.1-2.6,7.7-10.2,5.1-17.9
			C847.4,471,839.7,468.5,832,473.6z M627.2,453.1L512,522.2l-115.2-69.1V314.9L512,245.8l115.2,69.1V453.1z"/>
	</g>
</g>
</svg>
